<?xml version="1.0" ?>
<svg width="25" height="25" viewBox="0 0 25 25" fill="none" xmlns="http://www.w3.org/2000/svg">
<g>
<path d="M12.4209 -0.00012207C5.55983 -0.00012207 0.000854492 5.59464 0.000854492 12.4999C0.000854492 19.4051 5.55983 24.9999 12.4209 24.9999C19.282 24.9999 24.8409 19.4051 24.8409 12.4999C24.8409 5.59464 19.282 -0.00012207 12.4209 -0.00012207ZM23.2384 12.4999C23.2384 18.4827 18.4256 23.387 12.4209 23.387C6.4763 23.387 1.60344 18.5432 1.60344 12.4999C1.60344 6.51702 6.41621 1.61278 12.4209 1.61278C18.3655 1.61278 23.2384 6.45653 23.2384 12.4999ZM15.7813 16.9505L11.7148 13.9767C11.5595 13.8608 11.4694 13.6793 11.4694 13.4878V5.44343C11.4694 5.11076 11.7398 4.83859 12.0703 4.83859H12.7715C13.102 4.83859 13.3724 5.11076 13.3724 5.44343V12.8174L16.9031 15.4031C17.1736 15.5997 17.2287 15.9777 17.0333 16.2499L16.6227 16.8194C16.4274 17.0866 16.0518 17.1471 15.7813 16.9505Z" fill="#5F5F5F"/>
</g>
</svg>
