<?xml version="1.0" ?>
<svg width="19" height="25" viewBox="0 0 19 25" fill="none" xmlns="http://www.w3.org/2000/svg">
<g>
<path d="M9.43923 4.6875C6.83681 4.6875 4.71962 6.79028 4.71962 9.375C4.71962 11.9597 6.83681 14.0625 9.43923 14.0625C12.0417 14.0625 14.1588 11.9597 14.1588 9.375C14.1588 6.79028 12.0417 4.6875 9.43923 4.6875ZM9.43923 12.5C7.70428 12.5 6.29282 11.0981 6.29282 9.375C6.29282 7.65186 7.70428 6.25 9.43923 6.25C11.1742 6.25 12.5856 7.65186 12.5856 9.375C12.5856 11.0981 11.1742 12.5 9.43923 12.5ZM9.43923 0C4.22607 0 0 4.19731 0 9.375C0 13.1549 1.32592 14.2105 8.46915 24.4956C8.93787 25.1681 9.94054 25.1682 10.4094 24.4956C17.5525 14.2105 18.8785 13.1549 18.8785 9.375C18.8785 4.19731 14.6524 0 9.43923 0ZM9.43923 23.1412C2.59112 13.3051 1.57321 12.5241 1.57321 9.375C1.57321 7.28818 2.39142 5.32632 3.87712 3.85073C5.36281 2.37515 7.33812 1.5625 9.43923 1.5625C11.5403 1.5625 13.5157 2.37515 15.0013 3.85073C16.487 5.32632 17.3053 7.28818 17.3053 9.375C17.3053 12.5239 16.288 13.3042 9.43923 23.1412Z" fill="#5F5F5F"/>
</g>
</svg>
