<?xml version="1.0" ?>
<svg width="25" height="19" viewBox="0 0 25 19" fill="none" xmlns="http://www.w3.org/2000/svg">
<g>
<path d="M22.6562 0.125H2.34375C1.0498 0.125 0 1.1748 0 2.46875V16.5312C0 17.8252 1.0498 18.875 2.34375 18.875H22.6562C23.9502 18.875 25 17.8252 25 16.5312V2.46875C25 1.1748 23.9502 0.125 22.6562 0.125ZM2.34375 1.6875H22.6562C23.0859 1.6875 23.4375 2.03906 23.4375 2.46875V4.49023C22.3682 5.39355 20.8398 6.63867 16.084 10.4131C15.2588 11.0674 13.6328 12.6445 12.5 12.625C11.3672 12.6445 9.73633 11.0674 8.91602 10.4131C4.16016 6.63867 2.63184 5.39355 1.5625 4.49023V2.46875C1.5625 2.03906 1.91406 1.6875 2.34375 1.6875ZM22.6562 17.3125H2.34375C1.91406 17.3125 1.5625 16.9609 1.5625 16.5312V6.52148C2.67578 7.43457 4.43359 8.8457 7.94434 11.6338C8.94531 12.4346 10.7129 14.1973 12.5 14.1875C14.2773 14.2021 16.0303 12.4541 17.0557 11.6338C20.5664 8.8457 22.3242 7.43457 23.4375 6.52148V16.5312C23.4375 16.9609 23.0859 17.3125 22.6562 17.3125Z" fill="#5F5F5F"/>
</g>
</svg>
